Coordinates
version=1
nRows=8
nColumns=36
inDegrees=yes

Units are S.I. units (second, meters, Newtons, ...)
If the header above contains a line with 'inDegrees', this indicates whether rotational values are in degrees (yes) or radians (no).

endheader
time	pelvis_tilt	pelvis_list	pelvis_rotation	pelvis_tx	pelvis_ty	pelvis_tz	hip_flexion_r	hip_adduction_r	hip_rotation_r	knee_angle_r	knee_angle_r_beta	ankle_angle_r	subtalar_angle_r	mtp_angle_r	hip_flexion_l	hip_adduction_l	hip_rotation_l	knee_angle_l	knee_angle_l_beta	ankle_angle_l	subtalar_angle_l	mtp_angle_l	lumbar_extension	lumbar_bending	lumbar_rotation	arm_flex_r	arm_add_r	arm_rot_r	elbow_flex_r	pro_sup_r	arm_flex_l	arm_add_l	arm_rot_l	elbow_flex_l	pro_sup_l
      1.56250000	    -17.01714706	      3.17886675	      0.53481487	     -0.87796424	      1.12245354	     -0.06321467	     43.00654928	     -6.46807648	      3.63433563	     67.09473282	      1.17102400	     39.53651827	    -13.80108205	     -7.49999987	     43.65434421	     -0.24266033	     -1.76261758	     67.24600949	      1.17366427	     35.93299548	    -10.55096917	     -7.49999987	    -39.52816459	      0.82102422	     -0.19949974	     50.33574396	    -15.41327009	     13.20123633	     59.83601141	     76.36336724	     54.26573388	     -7.69229914	     22.28006024	     63.53885794	     66.47981501
      1.56666670	    -17.26907429	      3.09933738	      0.66457748	     -0.87646762	      1.11705018	     -0.06427923	     42.86524983	     -6.38003632	      3.43309431	     67.15552686	      1.17208505	     39.97527799	    -14.05499791	     -7.49999987	     43.73932245	     -0.47867247	     -1.85255420	     67.46393180	      1.17746774	     36.43985037	    -10.18454461	     -7.49999987	    -38.60387848	      0.65903098	     -0.13198796	     51.72774725	    -15.03103717	     13.44784644	     61.72106443	     75.76286275	     55.37737850	     -6.91608822	     21.90586326	     65.24024468	     65.47483620
      1.57083330	    -17.48551332	      3.06269730	      0.38689175	     -0.87272571	      1.11696814	     -0.06677913	     42.81441489	     -6.34068530	      3.41126370	     67.15550805	      1.17208473	     40.08125046	    -13.84421624	     -7.49999987	     43.58878797	     -0.62149126	     -2.02504157	     67.52065815	      1.17845780	     36.67564022	    -10.24880113	     -7.49999987	    -37.67683731	      0.49918296	     -0.01408477	     53.68172950	    -14.53766555	     14.34299302	     62.88800136	     76.10560889	     56.60040059	     -6.15841158	     21.55450749	     66.51586047	     64.05303664
      1.57500000	    -18.20038441	      2.92590687	      0.23697868	     -0.86790695	      1.11666989	     -0.06742524	     43.10392670	     -6.26740842	      3.39942450	     66.98657011	      1.16913620	     40.35316283	    -13.68617240	     -7.49999987	     43.87161617	     -0.67584867	     -2.02768346	     67.36583152	      1.17575556	     37.06494032	    -10.16464325	     -7.49999987	    -36.18774076	      0.56223892	      0.13601660	     55.03643949	    -13.83136512	     14.29776799	     64.14786836	     74.93096389	     57.77566473	     -5.41862962	     21.29181811	     67.36469249	     63.65755214
      1.57916670	    -17.87413503	      3.09629017	     -0.40767781	     -0.86144268	      1.11523784	     -0.06960830	     42.58393092	     -6.25298208	      3.94421164	     67.06081194	      1.17043197	     40.07135673	    -14.01681443	     -7.49999987	     42.80975316	     -0.68536874	     -2.54699164	     67.08587452	      1.17086939	     37.73876865	    -10.00260045	     -7.49999987	    -35.88715638	      0.26149818	      0.20613191	     56.86031628	    -13.24371622	     15.35099264	     65.84946534	     75.44332350	     59.54180896	     -4.98286802	     20.11430703	     68.03120907	     63.28481392
      1.58333330	    -18.05243787	      3.01965832	     -0.78674579	     -0.85702126	      1.11232969	     -0.07057411	     42.52335783	     -6.12102273	      4.22856310	     67.23206157	      1.17342084	     40.26230090	    -13.94808598	     -7.49999987	     42.49328044	     -0.73908509	     -2.69841743	     67.05322193	      1.17029950	     38.35924360	    -10.02652345	     -7.49999987	    -34.88795881	      0.38661990	      0.02043538	     58.79099326	    -12.34416579	     16.74085339	     66.98556775	     78.37270020	     61.05110598	     -5.17045740	     18.19212765	     69.18327723	     59.38136580
      1.58750000	    -18.22781518	      3.12661013	     -1.35334637	     -0.85192421	      1.11071712	     -0.07450589	     42.57976498	     -6.16668443	      4.72488936	     67.42844739	      1.17684842	     40.35488212	    -13.81438420	     -7.49999987	     42.24390270	     -0.66591076	     -3.11960861	     67.12791104	      1.17160307	     38.86923865	     -9.96458440	     -7.49999987	    -33.72471917	      0.27247122	      0.19546700	     59.73296717	    -11.90782149	     17.98707069	     69.09549379	     78.58570348	     62.36979190	     -4.85864816	     17.24855241	     70.30514545	     59.15014268
      1.59166670	    -18.67921824	      3.13218485	     -1.62023313	     -0.84963676	      1.11008152	     -0.07043397	     42.87402734	     -5.92559345	      5.03914163	     67.52045188	      1.17845420	     40.40606546	    -13.94118241	     -7.49999987	     42.39946011	     -0.76908408	     -3.26917550	     67.01534878	      1.16963849	     39.10245055	     -9.91299708	     -7.49999987	    -32.24567294	      0.18549234	      0.59945155	     60.76365771	    -11.79393733	     19.11215401	     71.17777995	     78.75109896	     63.14994398	     -4.09057032	     17.14082712	     72.46984760	     59.03789574
